<svg width="23" height="14" viewBox="0 0 23 14" fill="none" xmlns="http://www.w3.org/2000/svg">
<path d="M11.3807 6.5165L20.7609 2C20.7609 2 15.5482 5.87805 11.3807 8.07519L11.3807 6.5165Z" fill="#604A25"/>
<path d="M11.3807 6.5165L2.00061 2C2.00061 2 7.21331 5.87805 11.3807 8.07519L11.3807 6.5165Z" fill="#604A25"/>
<path d="M11.3807 7.82411L20.7609 3.30762C20.7609 3.30762 15.5482 7.18567 11.3807 9.38281L11.3807 7.82411Z" fill="#7E6941"/>
<path d="M11.3807 7.82411L2.00061 3.30762C2.00061 3.30762 7.21331 7.18566 11.3807 9.38281L11.3807 7.82411Z" fill="#7E6941"/>
<path d="M11.3801 10.4408L20.7603 5.92432C20.7603 5.92432 15.5476 9.80236 11.3801 11.9995L11.3801 10.4408Z" fill="#DFC188"/>
<path d="M11.3801 10.4408L2 5.92432C2 5.92432 7.2127 9.80236 11.3801 11.9995L11.3801 10.4408Z" fill="#DFC188"/>
<path d="M11.3801 9.13271L20.7603 4.61621C20.7603 4.61621 15.5476 8.49426 11.3801 10.6914L11.3801 9.13271Z" fill="#A98F5F"/>
<path d="M11.3801 9.13271L2 4.61621C2 4.61621 7.2127 8.49426 11.3801 10.6914L11.3801 9.13271Z" fill="#A98F5F"/>
</svg>
