<svg width="162" height="77" viewBox="0 0 162 77" fill="none" xmlns="http://www.w3.org/2000/svg">
<path d="M115.614 0C116.462 0 117.501 0.0426831 118.731 0.128049C120.004 0.213413 121.297 0.34146 122.612 0.51219C123.969 0.640238 125.136 0.789625 126.111 0.960353C127.129 1.0884 127.829 1.23779 128.211 1.40852L127.447 10.0517H126.811C126.811 7.83222 125.984 6.0609 124.33 4.73775C122.718 3.37191 120.555 2.68899 117.84 2.68899C115.38 2.68899 113.387 3.28654 111.86 4.48165C110.376 5.67676 109.591 7.12796 109.506 8.83525C109.464 10.1157 109.867 11.2255 110.715 12.1645C111.563 13.1035 112.645 13.9785 113.96 14.7894L126.111 22.7284C128.062 23.8381 129.526 25.2893 130.501 27.082C131.519 28.8746 131.964 30.9661 131.837 33.3563C131.625 37.5392 130.035 40.8044 127.066 43.1519C124.097 45.4567 120.067 46.6092 114.977 46.6092C113.111 46.6092 111.287 46.4384 109.506 46.097C107.767 45.7982 106.219 45.3714 104.862 44.8165C103.504 44.219 102.423 43.5147 101.617 42.7037C101.278 41.7647 101.129 40.6336 101.172 39.3105C101.214 37.9873 101.405 36.6428 101.744 35.277C102.126 33.9112 102.593 32.7801 103.144 31.8837H103.716C103.547 34.0605 103.929 36.088 104.862 37.966C105.837 39.8013 107.237 41.2739 109.061 42.3836C110.927 43.4507 113.132 43.9629 115.677 43.9202C118.477 43.8775 120.64 43.1732 122.167 41.8074C123.694 40.3989 124.457 38.7129 124.457 36.7495C124.457 35.4264 124.054 34.2313 123.248 33.1642C122.485 32.0972 121.212 31.0728 119.431 30.0911L108.297 22.6643C106.049 21.3839 104.416 19.7406 103.398 17.7345C102.38 15.7285 101.977 13.5517 102.19 11.2041C102.402 8.98464 103.059 7.04259 104.162 5.37798C105.265 3.67069 106.77 2.34753 108.679 1.40852C110.63 0.469507 112.942 0 115.614 0ZM128.274 0.640235L128.147 1.98473H120.64V0.640235H128.274Z" fill="#282828"/>
<path d="M146.966 0C146.118 0 145.078 0.0426831 143.848 0.128049C142.576 0.213413 141.282 0.34146 139.968 0.51219C138.61 0.640238 137.444 0.789625 136.468 0.960353C135.45 1.0884 134.751 1.23779 134.369 1.40852L135.132 10.0517H135.768C135.768 7.83222 136.596 6.0609 138.25 4.73775C139.861 3.37191 142.025 2.68899 144.739 2.68899C147.199 2.68899 149.193 3.28654 150.72 4.48165C152.204 5.67676 152.989 7.12796 153.074 8.83525C153.116 10.1157 152.713 11.2255 151.865 12.1645C151.016 13.1035 149.935 13.9785 148.62 14.7894L136.468 22.7284C134.517 23.8381 133.054 25.2893 132.078 27.082C131.061 28.8746 130.615 30.9661 130.742 33.3563C130.954 37.5392 132.545 40.8044 135.514 43.1519C138.483 45.4567 142.512 46.6092 147.602 46.6092C149.468 46.6092 151.292 46.4384 153.074 46.097C154.813 45.7982 156.361 45.3714 157.718 44.8165C159.075 44.219 160.157 43.5147 160.963 42.7037C161.302 41.7647 161.45 40.6336 161.408 39.3105C161.366 37.9873 161.175 36.6428 160.835 35.277C160.454 33.9112 159.987 32.7801 159.436 31.8837H158.863C159.033 34.0605 158.651 36.088 157.718 37.966C156.742 39.8013 155.343 41.2739 153.519 42.3836C151.653 43.4507 149.447 43.9629 146.902 43.9202C144.103 43.8775 141.94 43.1732 140.413 41.8074C138.886 40.3989 138.122 38.7129 138.122 36.7495C138.122 35.4264 138.525 34.2313 139.331 33.1642C140.095 32.0972 141.367 31.0728 143.149 30.0911L154.282 22.6643C156.53 21.3839 158.163 19.7406 159.181 17.7345C160.199 15.7285 160.602 13.5517 160.39 11.2041C160.178 8.98464 159.521 7.04259 158.418 5.37798C157.315 3.67069 155.809 2.34753 153.901 1.40852C151.95 0.469507 149.638 0 146.966 0ZM134.305 0.640235L134.432 1.98473H141.94V0.640235H134.305Z" fill="#282828"/>
<path d="M79.7912 6.86827V43.9004H71.8558V6.86827H79.7912ZM93.7577 41.6256L95.0273 43.9004H79.6325V41.6256H93.7577ZM91.8002 24.5379V26.7598H79.6325V24.5379H91.8002ZM94.3925 6.86827V9.14311H79.6325V6.86827H94.3925ZM97.6196 33.0553L95.186 43.9004H84.817L86.7215 41.6256C88.485 41.6256 90.0368 41.2906 91.377 40.6204C92.7172 39.9151 93.8635 38.9275 94.8157 37.6579C95.768 36.3529 96.5262 34.8187 97.0905 33.0553H97.6196ZM91.8002 26.654V31.7327H91.2712V31.3095C91.2712 30.0046 90.848 28.9289 90.0015 28.0824C89.1551 27.236 88.0794 26.7951 86.7744 26.7598V26.654H91.8002ZM91.8002 19.565V24.6437H86.7744V24.5379C88.0794 24.5026 89.1551 24.0618 90.0015 23.2153C90.848 22.3336 91.2712 21.2403 91.2712 19.9353V19.565H91.8002ZM94.3925 8.9844V15.1741H93.8635V14.5392C93.8635 12.9169 93.3697 11.6119 92.3822 10.6244C91.4299 9.63687 90.125 9.12547 88.4673 9.0902V8.9844H94.3925ZM94.3925 5.91602V7.45021L87.9383 6.86827C88.7142 6.86827 89.5254 6.81537 90.3718 6.70956C91.2536 6.60376 92.0647 6.48032 92.8054 6.33924C93.546 6.19817 94.0751 6.05709 94.3925 5.91602ZM72.0145 40.0385V43.9004H67.7822V43.3714C67.7822 43.3714 67.888 43.3714 68.0996 43.3714C68.3465 43.3714 68.47 43.3714 68.47 43.3714C69.387 43.3714 70.1629 43.054 70.7977 42.4191C71.4678 41.749 71.8205 40.9555 71.8558 40.0385H72.0145ZM72.0145 10.7302H71.8558C71.8205 9.81321 71.4678 9.0373 70.7977 8.40246C70.1629 7.73236 69.387 7.3973 68.47 7.3973C68.47 7.3973 68.3465 7.3973 68.0996 7.3973C67.888 7.3973 67.7822 7.3973 67.7822 7.3973V6.86827H72.0145V10.7302Z" fill="#282828"/>
<path d="M47.4499 6.86841V43.9006H39.5145V6.86841H47.4499ZM61.4163 41.6257L62.686 43.9006H47.2912V41.6257H61.4163ZM65.2783 33.0554L62.8447 43.9006H52.4757L54.3802 41.6257C56.1437 41.6257 57.6955 41.2907 59.0357 40.6206C60.3759 39.9152 61.5221 38.9277 62.4744 37.658C63.4267 36.3531 64.1849 34.8189 64.7492 33.0554H65.2783ZM39.6732 40.0387V43.9006H35.4409V43.3715C35.4409 43.3715 35.5467 43.3715 35.7583 43.3715C36.0052 43.3715 36.1287 43.3715 36.1287 43.3715C37.0456 43.3715 37.8216 43.0541 38.4564 42.4193C39.1265 41.7492 39.4792 40.9556 39.5145 40.0387H39.6732ZM39.6732 10.7303H39.5145C39.4792 9.81335 39.1265 9.03744 38.4564 8.4026C37.8216 7.73249 37.0456 7.39744 36.1287 7.39744C36.1287 7.39744 36.0052 7.39744 35.7583 7.39744C35.5467 7.39744 35.4409 7.39744 35.4409 7.39744V6.86841H39.6732V10.7303ZM47.2912 10.7303V6.86841H51.5235V7.39744C51.4882 7.39744 51.3647 7.39744 51.1531 7.39744C50.9415 7.39744 50.8357 7.39744 50.8357 7.39744C49.9187 7.39744 49.1252 7.73249 48.4551 8.4026C47.8202 9.03744 47.4852 9.81335 47.4499 10.7303H47.2912Z" fill="#282828"/>
<path d="M6.13676 6.86841H15.289C17.8636 6.86841 20.1561 7.18583 22.1664 7.82066C24.212 8.42023 25.8167 9.39012 26.9806 10.7303C28.1444 12.0353 28.7264 13.7634 28.7264 15.9148C28.7264 17.5372 28.409 18.9127 27.7741 20.0413C27.1746 21.1699 26.381 22.034 25.3935 22.6335C24.406 23.2331 23.3655 23.6034 22.2722 23.7445C24.0356 23.8856 25.6227 24.3793 27.0335 25.2258C28.4795 26.0722 29.6081 27.2008 30.4193 28.6116C31.2305 30.0223 31.6361 31.68 31.6361 33.5845C31.6361 35.8417 31.0189 37.7462 29.7844 39.298C28.55 40.8146 26.8042 41.9608 24.547 42.7367C22.3251 43.5126 19.7329 43.9006 16.7703 43.9006H11.5329C11.5329 43.9006 11.5329 43.7066 11.5329 43.3186C11.5681 42.8954 11.5858 42.4898 11.5858 42.1019C11.5858 41.7139 11.5858 41.5199 11.5858 41.5199H14.4425C16.0296 41.5199 17.4228 41.2202 18.6219 40.6206C19.8563 40.021 20.8085 39.0864 21.4787 37.8167C22.184 36.547 22.5367 34.9247 22.5367 32.9496C22.5367 31.3978 22.2898 30.0752 21.7961 28.9819C21.3376 27.8886 20.7027 27.0069 19.8916 26.3367C19.1157 25.6314 18.1987 25.12 17.1406 24.8026C16.0825 24.4851 14.9716 24.3264 13.8077 24.3264V23.8503C14.6189 23.8503 15.4124 23.7269 16.1883 23.48C16.9643 23.1978 17.652 22.7746 18.2516 22.2103C18.8864 21.646 19.3802 20.9054 19.7329 19.9884C20.0855 19.0361 20.2619 17.9075 20.2619 16.6026C20.2619 14.8039 19.9797 13.3579 19.4154 12.2645C18.8864 11.1712 18.1105 10.3776 17.0877 9.88389C16.0649 9.39012 14.8834 9.14324 13.5432 9.14324H6.66579C6.66579 9.10797 6.61289 8.91399 6.50708 8.56131C6.43654 8.17335 6.34837 7.80303 6.24257 7.45034C6.17203 7.06239 6.13676 6.86841 6.13676 6.86841ZM12.009 6.86841V43.9006H4.07354V6.86841H12.009ZM4.23225 40.0387V43.9006H0V43.3715C0.0705375 43.3715 0.193978 43.3715 0.370322 43.3715C0.546665 43.3715 0.652471 43.3715 0.68774 43.3715C1.60473 43.3715 2.38064 43.0541 3.01548 42.4193C3.68558 41.7492 4.03827 40.9556 4.07354 40.0387H4.23225ZM4.23225 10.7303H4.07354C4.03827 9.81335 3.68558 9.03744 3.01548 8.4026C2.38064 7.73249 1.60473 7.39744 0.68774 7.39744C0.652471 7.39744 0.546665 7.39744 0.370322 7.39744C0.193978 7.39744 0.0705375 7.39744 0 7.39744V6.86841H4.23225V10.7303Z" fill="#282828"/>
<path d="M108.394 55.409L111.664 62.549H109.864L107.784 57.339L108.394 55.409ZM106.244 61.879C106.191 62.0123 106.181 62.1257 106.214 62.219C106.248 62.3123 106.304 62.3857 106.384 62.439C106.464 62.4857 106.544 62.509 106.624 62.509H106.714V62.609H104.574V62.509C104.574 62.509 104.591 62.509 104.624 62.509C104.651 62.509 104.664 62.509 104.664 62.509C104.818 62.509 104.974 62.4623 105.134 62.369C105.301 62.269 105.438 62.1057 105.544 61.879H106.244ZM108.394 55.409L108.434 56.629L105.954 62.579H105.224L107.814 56.719C107.834 56.679 107.868 56.6057 107.914 56.499C107.968 56.3857 108.021 56.259 108.074 56.119C108.134 55.979 108.188 55.8457 108.234 55.719C108.281 55.5857 108.304 55.4823 108.304 55.409H108.394ZM109.444 60.229V60.649H106.504V60.229H109.444ZM109.594 61.879H111.344C111.458 62.1057 111.594 62.269 111.754 62.369C111.914 62.4623 112.071 62.509 112.224 62.509C112.224 62.509 112.238 62.509 112.264 62.509C112.291 62.509 112.304 62.509 112.304 62.509V62.609H109.124V62.509H109.214C109.348 62.509 109.464 62.4557 109.564 62.349C109.664 62.2357 109.674 62.079 109.594 61.879ZM114.712 55.609V62.609H113.212V55.609H114.712ZM117.352 62.179L117.592 62.609H114.682V62.179H117.352ZM118.082 60.559L117.622 62.609H115.662L116.022 62.179C116.356 62.179 116.649 62.1157 116.902 61.989C117.156 61.8557 117.372 61.669 117.552 61.429C117.732 61.1823 117.876 60.8923 117.982 60.559H118.082ZM113.242 61.879V62.609H112.442V62.509C112.442 62.509 112.462 62.509 112.502 62.509C112.549 62.509 112.572 62.509 112.572 62.509C112.746 62.509 112.892 62.449 113.012 62.329C113.139 62.2023 113.206 62.0523 113.212 61.879H113.242ZM113.242 56.339H113.212C113.206 56.1657 113.139 56.019 113.012 55.899C112.892 55.7723 112.746 55.709 112.572 55.709C112.572 55.709 112.549 55.709 112.502 55.709C112.462 55.709 112.442 55.709 112.442 55.709V55.609H113.242V56.339ZM114.682 56.339V55.609H115.482V55.709C115.476 55.709 115.452 55.709 115.412 55.709C115.372 55.709 115.352 55.709 115.352 55.709C115.179 55.709 115.029 55.7723 114.902 55.899C114.782 56.019 114.719 56.1657 114.712 56.339H114.682ZM120.826 55.609V62.609H119.326V55.609H120.826ZM123.466 62.179L123.706 62.609H120.796V62.179H123.466ZM124.196 60.559L123.736 62.609H121.776L122.136 62.179C122.469 62.179 122.762 62.1157 123.016 61.989C123.269 61.8557 123.486 61.669 123.666 61.429C123.846 61.1823 123.989 60.8923 124.096 60.559H124.196ZM119.356 61.879V62.609H118.556V62.509C118.556 62.509 118.576 62.509 118.616 62.509C118.662 62.509 118.686 62.509 118.686 62.509C118.859 62.509 119.006 62.449 119.126 62.329C119.252 62.2023 119.319 62.0523 119.326 61.879H119.356ZM119.356 56.339H119.326C119.319 56.1657 119.252 56.019 119.126 55.899C119.006 55.7723 118.859 55.709 118.686 55.709C118.686 55.709 118.662 55.709 118.616 55.709C118.576 55.709 118.556 55.709 118.556 55.709V55.609H119.356V56.339ZM120.796 56.339V55.609H121.596V55.709C121.589 55.709 121.566 55.709 121.526 55.709C121.486 55.709 121.466 55.709 121.466 55.709C121.292 55.709 121.142 55.7723 121.016 55.899C120.896 56.019 120.832 56.1657 120.826 56.339H120.796ZM129.578 55.469C129.711 55.469 129.874 55.4757 130.068 55.489C130.268 55.5023 130.471 55.5223 130.678 55.549C130.891 55.569 131.074 55.5923 131.228 55.619C131.388 55.639 131.498 55.6623 131.558 55.689L131.438 57.039H131.338C131.338 56.6923 131.208 56.4157 130.948 56.209C130.694 55.9957 130.354 55.889 129.928 55.889C129.541 55.889 129.228 55.9823 128.988 56.169C128.754 56.3557 128.631 56.5823 128.618 56.849C128.611 57.049 128.674 57.2223 128.808 57.369C128.941 57.5157 129.111 57.6523 129.318 57.779L131.228 59.019C131.534 59.1923 131.764 59.419 131.918 59.699C132.078 59.979 132.148 60.3057 132.128 60.679C132.094 61.3323 131.844 61.8423 131.378 62.209C130.911 62.569 130.278 62.749 129.478 62.749C129.184 62.749 128.898 62.7223 128.618 62.669C128.344 62.6223 128.101 62.5557 127.888 62.469C127.674 62.3757 127.504 62.2657 127.378 62.139C127.324 61.9923 127.301 61.8157 127.308 61.609C127.314 61.4023 127.344 61.1923 127.398 60.979C127.458 60.7657 127.531 60.589 127.618 60.449H127.708C127.681 60.789 127.741 61.1057 127.888 61.399C128.041 61.6857 128.261 61.9157 128.548 62.089C128.841 62.2557 129.188 62.3357 129.588 62.329C130.028 62.3223 130.368 62.2123 130.608 61.999C130.848 61.779 130.968 61.5157 130.968 61.209C130.968 61.0023 130.904 60.8157 130.778 60.649C130.658 60.4823 130.458 60.3223 130.178 60.169L128.428 59.009C128.074 58.809 127.818 58.5523 127.658 58.239C127.498 57.9257 127.434 57.5857 127.468 57.219C127.501 56.8723 127.604 56.569 127.778 56.309C127.951 56.0423 128.188 55.8357 128.488 55.689C128.794 55.5423 129.158 55.469 129.578 55.469ZM131.568 55.569L131.548 55.779H130.368V55.569H131.568ZM132.959 55.669H134.589L136.189 60.189L135.589 62.789L132.959 55.669ZM137.959 55.449L138.139 56.439L135.919 61.679C135.919 61.679 135.899 61.7357 135.859 61.849C135.819 61.9623 135.779 62.1023 135.739 62.269C135.705 62.4357 135.685 62.609 135.679 62.789H135.589L135.309 61.599L137.869 55.449H137.959ZM137.959 55.459L140.159 60.319L139.679 62.789L137.269 57.459L137.959 55.459ZM141.829 55.669L139.949 61.679C139.949 61.679 139.932 61.739 139.899 61.859C139.865 61.9723 139.835 62.1157 139.809 62.289C139.782 62.4557 139.772 62.6223 139.779 62.789H139.679L139.399 61.799L141.149 55.669H141.829ZM140.959 56.329C141.012 56.129 140.995 55.9757 140.909 55.869C140.822 55.7623 140.712 55.709 140.579 55.709H140.489V55.609H142.579V55.709C142.579 55.709 142.565 55.709 142.539 55.709C142.512 55.709 142.499 55.709 142.499 55.709C142.345 55.709 142.179 55.759 141.999 55.859C141.819 55.9523 141.692 56.109 141.619 56.329H140.959ZM134.839 56.329H133.209C133.122 56.109 132.992 55.9523 132.819 55.859C132.645 55.759 132.482 55.709 132.329 55.709C132.329 55.709 132.315 55.709 132.289 55.709C132.262 55.709 132.249 55.709 132.249 55.709V55.609H135.299V55.709H135.209C135.082 55.709 134.969 55.7623 134.869 55.869C134.775 55.9757 134.765 56.129 134.839 56.329ZM144.986 55.609V62.609H143.486V55.609H144.986ZM143.516 61.879V62.609H142.716V62.509C142.716 62.509 142.736 62.509 142.776 62.509C142.823 62.509 142.846 62.509 142.846 62.509C143.019 62.509 143.166 62.449 143.286 62.329C143.413 62.2023 143.479 62.0523 143.486 61.879H143.516ZM143.516 56.339H143.486C143.479 56.1657 143.413 56.019 143.286 55.899C143.166 55.7723 143.019 55.709 142.846 55.709C142.846 55.709 142.823 55.709 142.776 55.709C142.736 55.709 142.716 55.709 142.716 55.709V55.609H143.516V56.339ZM144.956 61.879H144.986C144.993 62.0523 145.056 62.2023 145.176 62.329C145.303 62.449 145.453 62.509 145.626 62.509C145.626 62.509 145.646 62.509 145.686 62.509C145.726 62.509 145.749 62.509 145.756 62.509V62.609H144.956V61.879ZM144.956 56.339V55.609H145.756V55.709C145.749 55.709 145.726 55.709 145.686 55.709C145.646 55.709 145.626 55.709 145.626 55.709C145.453 55.709 145.303 55.7723 145.176 55.899C145.056 56.019 144.993 56.1657 144.986 56.339H144.956ZM148.933 55.469C149.066 55.469 149.23 55.4757 149.423 55.489C149.623 55.5023 149.826 55.5223 150.033 55.549C150.246 55.569 150.43 55.5923 150.583 55.619C150.743 55.639 150.853 55.6623 150.913 55.689L150.793 57.039H150.693C150.693 56.6923 150.563 56.4157 150.303 56.209C150.05 55.9957 149.71 55.889 149.283 55.889C148.896 55.889 148.583 55.9823 148.343 56.169C148.11 56.3557 147.986 56.5823 147.973 56.849C147.966 57.049 148.03 57.2223 148.163 57.369C148.296 57.5157 148.466 57.6523 148.673 57.779L150.583 59.019C150.89 59.1923 151.12 59.419 151.273 59.699C151.433 59.979 151.503 60.3057 151.483 60.679C151.45 61.3323 151.2 61.8423 150.733 62.209C150.266 62.569 149.633 62.749 148.833 62.749C148.54 62.749 148.253 62.7223 147.973 62.669C147.7 62.6223 147.456 62.5557 147.243 62.469C147.03 62.3757 146.86 62.2657 146.733 62.139C146.68 61.9923 146.656 61.8157 146.663 61.609C146.67 61.4023 146.7 61.1923 146.753 60.979C146.813 60.7657 146.886 60.589 146.973 60.449H147.063C147.036 60.789 147.096 61.1057 147.243 61.399C147.396 61.6857 147.616 61.9157 147.903 62.089C148.196 62.2557 148.543 62.3357 148.943 62.329C149.383 62.3223 149.723 62.2123 149.963 61.999C150.203 61.779 150.323 61.5157 150.323 61.209C150.323 61.0023 150.26 60.8157 150.133 60.649C150.013 60.4823 149.813 60.3223 149.533 60.169L147.783 59.009C147.43 58.809 147.173 58.5523 147.013 58.239C146.853 57.9257 146.79 57.5857 146.823 57.219C146.856 56.8723 146.96 56.569 147.133 56.309C147.306 56.0423 147.543 55.8357 147.843 55.689C148.15 55.5423 148.513 55.469 148.933 55.469ZM150.923 55.569L150.903 55.779H149.723V55.569H150.923ZM154.714 55.469C154.848 55.469 155.011 55.4757 155.204 55.489C155.404 55.5023 155.608 55.5223 155.814 55.549C156.028 55.569 156.211 55.5923 156.364 55.619C156.524 55.639 156.634 55.6623 156.694 55.689L156.574 57.039H156.474C156.474 56.6923 156.344 56.4157 156.084 56.209C155.831 55.9957 155.491 55.889 155.064 55.889C154.678 55.889 154.364 55.9823 154.124 56.169C153.891 56.3557 153.768 56.5823 153.754 56.849C153.748 57.049 153.811 57.2223 153.944 57.369C154.078 57.5157 154.248 57.6523 154.454 57.779L156.364 59.019C156.671 59.1923 156.901 59.419 157.054 59.699C157.214 59.979 157.284 60.3057 157.264 60.679C157.231 61.3323 156.981 61.8423 156.514 62.209C156.048 62.569 155.414 62.749 154.614 62.749C154.321 62.749 154.034 62.7223 153.754 62.669C153.481 62.6223 153.238 62.5557 153.024 62.469C152.811 62.3757 152.641 62.2657 152.514 62.139C152.461 61.9923 152.438 61.8157 152.444 61.609C152.451 61.4023 152.481 61.1923 152.534 60.979C152.594 60.7657 152.668 60.589 152.754 60.449H152.844C152.818 60.789 152.878 61.1057 153.024 61.399C153.178 61.6857 153.398 61.9157 153.684 62.089C153.978 62.2557 154.324 62.3357 154.724 62.329C155.164 62.3223 155.504 62.2123 155.744 61.999C155.984 61.779 156.104 61.5157 156.104 61.209C156.104 61.0023 156.041 60.8157 155.914 60.649C155.794 60.4823 155.594 60.3223 155.314 60.169L153.564 59.009C153.211 58.809 152.954 58.5523 152.794 58.239C152.634 57.9257 152.571 57.5857 152.604 57.219C152.638 56.8723 152.741 56.569 152.914 56.309C153.088 56.0423 153.324 55.8357 153.624 55.689C153.931 55.5423 154.294 55.469 154.714 55.469ZM156.704 55.569L156.684 55.779H155.504V55.569H156.704Z" fill="#282828"/>
</svg>
