<svg width="59" height="58" viewBox="0 0 59 58" fill="none" xmlns="http://www.w3.org/2000/svg">
<rect y="0.000976562" width="59" height="57.4662" rx="28.7331" fill="url(#paint0_linear_444_4445)"/>
<path d="M30.6133 38.669C30.5156 38.6729 30.4531 38.6807 30.3906 38.6807C29.0547 38.6807 27.7227 38.6768 26.3867 38.6846C26.1992 38.6846 26.1484 38.6338 26.1484 38.4463C26.1523 35.3369 26.1523 32.2236 26.1523 29.1143C26.1523 29.0322 26.1523 28.9502 26.1523 28.8447C25.4258 28.8447 24.7187 28.8447 24 28.8447C24 27.7354 24 26.6455 24 25.5244C24.0742 25.5244 24.1445 25.5244 24.2109 25.5244C24.7969 25.5244 25.3828 25.5205 25.9687 25.5283C26.1172 25.5283 26.1562 25.4854 26.1562 25.3408C26.1484 24.4697 26.1484 23.5947 26.1562 22.7236C26.1602 22.1143 26.2578 21.5205 26.5391 20.9697C26.9414 20.1924 27.5781 19.6885 28.3828 19.376C29.0391 19.1182 29.7305 19.0244 30.4258 19.0127C31.5586 18.9971 32.6914 19.0049 33.8242 19.001C33.9297 19.001 34.0156 18.9971 34.0156 19.1455C34.0117 20.2197 34.0117 21.294 34.0117 22.3682C34.0117 22.3799 34.0078 22.3916 33.9922 22.4424C33.9258 22.4424 33.8516 22.4424 33.7773 22.4424C33.0742 22.4424 32.3711 22.4385 31.668 22.4424C31.2617 22.4424 30.9336 22.6065 30.7266 22.9619C30.6641 23.0674 30.625 23.2041 30.625 23.3291C30.6133 23.9932 30.625 24.6572 30.6172 25.3213C30.6172 25.4775 30.6641 25.5205 30.8164 25.5205C31.793 25.5127 32.7695 25.5166 33.7461 25.5166C33.8242 25.5166 33.8984 25.5166 34.0312 25.5166C33.8945 26.6338 33.7617 27.7275 33.625 28.833C32.6094 28.833 31.6211 28.833 30.6133 28.833C30.6133 32.1182 30.6133 35.3838 30.6133 38.669Z" fill="#282828"/>
<defs>
<linearGradient id="paint0_linear_444_4445" x1="27.5246" y1="0.000976075" x2="46.7435" y2="51.0297" gradientUnits="userSpaceOnUse">
<stop stop-color="#FFE7D1"/>
<stop offset="0.333333" stop-color="#C89770"/>
<stop offset="0.666667" stop-color="#F4CFAD"/>
<stop offset="1" stop-color="#905E3F"/>
</linearGradient>
</defs>
</svg>
