<svg width="48" height="33" viewBox="0 0 48 33" fill="none" xmlns="http://www.w3.org/2000/svg">
<path d="M18.985 16.5317L9.8303 16.5317M14.4074 21.0629L14.4074 12.0004M38.339 16.2759L26.47 16.2748M38.339 16.2759L31.3248 9.33379M38.339 16.2759L31.3262 23.2168M22.9079 24.8289C27.5266 29.4003 35.0144 29.401 39.6323 24.8305C44.2501 20.26 44.2494 12.849 39.6307 8.27762C35.0119 3.70624 27.5242 3.70555 22.9063 8.27607C18.2884 12.8466 18.2891 20.2576 22.9079 24.8289ZM4.83984 16.5733C4.83984 22.4126 9.62165 27.1462 15.5203 27.1462C21.419 27.1462 26.2008 22.4126 26.2008 16.5733C26.2008 10.7341 21.419 6.00042 15.5203 6.00042C9.62165 6.00042 4.83984 10.7341 4.83984 16.5733Z" stroke="black" stroke-width="1.5" stroke-linecap="round" stroke-linejoin="round"/>
</svg>
