<svg width="58" height="58" viewBox="0 0 58 58" fill="none" xmlns="http://www.w3.org/2000/svg">
<rect y="0.000976562" width="58" height="57.4662" rx="28.7331" fill="url(#paint0_linear_444_4442)"/>
<path d="M24.0302 17.0844C22.7534 17.1443 21.8814 17.3469 21.1192 17.6446C20.3303 17.9503 19.6616 18.3604 18.9964 19.0242C18.3311 19.688 17.9214 20.3532 17.6161 21.1387C17.3207 21.8981 17.1205 22.7657 17.0641 24.0357C17.0077 25.3058 16.9952 25.714 17.0015 28.9537C17.0077 32.1933 17.0221 32.5994 17.084 33.8721C17.145 35.1412 17.348 36.0078 17.6475 36.7658C17.9555 37.5501 18.3676 38.2146 19.0355 38.8762C19.7034 39.5379 20.3721 39.9442 21.1641 40.2482C21.9273 40.5414 22.8002 40.7413 24.0775 40.7969C25.3547 40.8525 25.7659 40.8654 29.0237 40.8592C32.2815 40.853 32.6916 40.8387 33.9715 40.7783C35.2515 40.718 36.1186 40.5147 36.8813 40.2183C37.6702 39.9115 38.3391 39.5025 39.0042 38.8383C39.6692 38.174 40.0787 37.5083 40.3837 36.7224C40.6794 35.9637 40.8803 35.0959 40.9357 33.827C40.9916 32.5536 41.0048 32.1471 40.9986 28.9079C40.9923 25.6687 40.9777 25.2626 40.917 23.9904C40.8563 22.7182 40.653 21.8542 40.3537 21.0957C40.0453 20.3114 39.6337 19.6474 38.966 18.9853C38.2983 18.3232 37.6282 17.9164 36.8379 17.6139C36.0742 17.3201 35.2018 17.12 33.9245 17.0651C32.6472 17.0102 32.2361 16.9961 28.9771 17.0023C25.7181 17.0085 25.3101 17.0224 24.0302 17.0844ZM24.1703 38.6507C23.0003 38.6002 22.365 38.4069 21.9417 38.2451C21.381 38.0304 20.9817 37.7708 20.5597 37.3554C20.1378 36.94 19.8786 36.5415 19.6597 35.9854C19.4953 35.5645 19.2973 34.9336 19.2426 33.7705C19.1831 32.5133 19.1706 32.1358 19.1636 28.9508C19.1567 25.7658 19.1689 25.3888 19.2244 24.1311C19.2743 22.9689 19.4699 22.3367 19.6324 21.916C19.8484 21.3579 20.1085 20.9616 20.5273 20.5424C20.9461 20.1232 21.3457 19.865 21.9057 19.6474C22.3286 19.4833 22.9631 19.2881 24.1327 19.2327C25.3982 19.1731 25.7774 19.1612 28.9807 19.1542C32.184 19.1473 32.5642 19.1593 33.8302 19.2146C34.9992 19.2652 35.6355 19.4577 36.0581 19.6202C36.619 19.835 37.0181 20.0929 37.4398 20.51C37.8615 20.927 38.1214 21.3229 38.3403 21.8807C38.5057 22.2999 38.702 22.9305 38.7572 24.0939C38.8174 25.352 38.8311 25.7293 38.8369 28.9136C38.8426 32.0979 38.8314 32.4761 38.7759 33.7333C38.7248 34.8964 38.5309 35.5282 38.3679 35.9496C38.1519 36.5067 37.8915 36.904 37.4725 37.323C37.0534 37.7419 36.6543 38.0001 36.0941 38.2177C35.6717 38.3816 35.0364 38.5773 33.8679 38.6326C32.6023 38.6918 32.2231 38.7042 29.0186 38.7111C25.8141 38.718 25.4361 38.7051 24.1706 38.6507M33.9531 22.5547C33.9535 22.8379 34.0385 23.1146 34.1971 23.3497C34.3558 23.5849 34.581 23.768 34.8443 23.8759C35.1077 23.9838 35.3973 24.0117 35.6765 23.9559C35.9558 23.9002 36.2122 23.7634 36.4132 23.5628C36.6142 23.3622 36.7509 23.1068 36.806 22.829C36.861 22.5512 36.8319 22.2634 36.7224 22.002C36.6129 21.7406 36.4279 21.5173 36.1908 21.3605C35.9536 21.2036 35.675 21.1202 35.3902 21.1208C35.0084 21.1215 34.6425 21.273 34.373 21.5419C34.1035 21.8108 33.9524 22.1751 33.9531 22.5547ZM22.8386 28.9427C22.8453 32.326 25.6091 35.0625 29.0117 35.056C32.4142 35.0496 35.1687 32.3021 35.1622 28.9188C35.1557 25.5355 32.3911 22.7983 28.9881 22.805C25.5851 22.8117 22.8321 25.5599 22.8386 28.9427ZM25 28.9384C24.9985 28.1519 25.2315 27.3826 25.6698 26.7277C26.108 26.0729 26.7317 25.562 27.462 25.2596C28.1924 24.9571 28.9965 24.8768 29.7727 25.0287C30.549 25.1806 31.2625 25.558 31.823 26.113C32.3836 26.6681 32.766 27.3759 32.9218 28.147C33.0777 28.9181 33.0001 29.7178 32.6988 30.4451C32.3975 31.1723 31.886 31.7944 31.2291 32.2327C30.5721 32.6709 29.7992 32.9057 29.0081 32.9072C28.4827 32.9083 27.9623 32.8065 27.4766 32.6077C26.9909 32.4088 26.5493 32.1167 26.1771 31.7482C25.8049 31.3796 25.5094 30.9418 25.3074 30.4597C25.1054 29.9776 25.001 29.4606 25 28.9384Z" fill="#282828"/>
<defs>
<linearGradient id="paint0_linear_444_4442" x1="27.058" y1="0.000976075" x2="46.5243" y2="50.8102" gradientUnits="userSpaceOnUse">
<stop stop-color="#FFE7D1"/>
<stop offset="0.333333" stop-color="#C89770"/>
<stop offset="0.666667" stop-color="#F4CFAD"/>
<stop offset="1" stop-color="#905E3F"/>
</linearGradient>
</defs>
</svg>
