<svg width="119" height="50" viewBox="0 0 119 50" fill="none" xmlns="http://www.w3.org/2000/svg">
<path d="M111.385 36.9544C111.453 36.9275 111.526 36.9383 111.589 36.9759C111.61 37.0028 111.646 37.0297 111.667 37.0782C111.709 37.132 111.725 37.2073 111.725 37.288C111.725 37.6055 111.898 39.6933 113.17 41.173C114.191 42.3676 116.06 43.051 118.081 43.051C118.212 43.051 118.327 43.1963 118.338 43.3684C118.338 43.3738 118.338 43.3738 118.338 43.3792V43.3846V43.39C118.338 43.3953 118.338 43.3953 118.338 43.4007C118.327 43.5729 118.218 43.7182 118.081 43.7182C116.06 43.7182 114.191 44.4016 113.17 45.5961C111.903 47.0813 111.725 49.1637 111.725 49.4812C111.725 49.5619 111.704 49.6372 111.667 49.691C111.646 49.7448 111.61 49.7717 111.589 49.7933C111.526 49.8363 111.453 49.8417 111.385 49.8148V49.8309C111.269 49.7663 111.191 49.6749 111.191 49.5888C111.191 49.5888 111.191 49.5888 111.191 49.5619C111.191 49.239 110.657 46.6454 107.306 45.1872C104.311 43.8904 98.8654 43.6967 92.7864 43.6967C92.4303 43.6967 92.1267 43.5675 92.0691 43.4061H92.0586C92.0586 43.4007 92.0638 43.3953 92.0638 43.39C92.0638 43.3846 92.0586 43.3792 92.0586 43.3738H92.0691C92.1267 43.2124 92.4356 43.0833 92.7864 43.0833C98.8654 43.0833 104.316 42.8895 107.311 41.5874C110.662 40.1345 111.196 37.5355 111.196 37.2127C111.196 37.1858 111.196 37.1858 111.196 37.1858C111.196 37.0943 111.269 37.0082 111.39 36.9436V36.9544H111.385Z" fill="#A7B5BF"/>
<path d="M45.5821 37.1671C45.0274 37.624 44.3095 37.9177 43.6569 38.1787C42.939 38.4724 42.1885 38.5376 41.3727 38.5376C40.3612 38.5376 39.4475 38.3419 38.5338 37.9829C37.6202 37.624 36.9023 37.0366 36.1518 36.384C35.4992 35.7314 34.9771 34.883 34.5855 34.0672C34.2265 33.1209 34.0308 32.2073 34.0308 31.1957C34.0308 30.1841 34.2265 29.2378 34.5855 28.3242C34.9444 27.3779 35.4992 26.66 36.1518 25.9095C36.8044 25.2569 37.6202 24.7022 38.4359 24.3106C39.2517 23.9516 40.2633 23.7559 41.3727 23.7559C42.0906 23.7559 42.8411 23.8538 43.4611 24.0495C44.1137 24.2453 44.7337 24.5064 45.2884 24.8979L44.8316 25.5506C43.9179 24.8 42.7432 24.3432 41.2748 24.3432C40.3611 24.3432 39.4475 24.539 38.7949 24.8979C38.077 25.2569 37.5223 25.7463 37.0654 26.3011C36.6086 26.9537 36.2497 27.6063 36.0539 28.4547C35.7928 29.3031 35.6949 30.2168 35.6949 31.1631C35.6949 32.1746 35.7928 33.023 36.0539 33.8714C36.2497 34.7198 36.6086 35.3724 37.0654 36.0251C37.5223 36.6777 38.1749 37.1345 38.7949 37.4282C39.5127 37.7871 40.3611 37.885 41.2748 37.885C42.0906 37.885 42.7432 37.7871 43.3632 37.5261C44.0158 37.3303 44.4726 36.9714 44.9295 36.5798L45.5821 37.1671Z" fill="#A7B5BF"/>
<path d="M46.0063 38.3746V31.8158V19.2529L47.3768 19.3508V27.6391C48.0295 26.7254 48.9431 26.0075 49.9221 25.4528C50.9336 24.8981 52.1083 24.637 53.3157 24.637C54.3272 24.637 55.2409 24.8328 56.1545 25.1917C57.0682 25.5507 57.7861 26.1054 58.5366 26.7254C59.1892 27.378 59.7113 28.1938 60.1029 29.1074C60.4618 30.0211 60.6576 30.9348 60.6576 31.9137V38.5704H59.1892V31.9137C59.1892 31 58.9934 30.0864 58.7324 29.2706C58.4713 28.4548 58.0798 27.737 57.6229 27.1822C57.1661 26.6275 56.5135 26.1054 55.7956 25.8117C55.0777 25.4528 54.2293 25.3549 53.2504 25.3549C52.3367 25.3549 51.4231 25.5507 50.7052 25.8117C49.9873 26.1707 49.3347 26.6275 48.8779 27.1822C48.421 27.737 47.9642 28.4548 47.7684 29.2706C47.5726 30.0864 47.4095 31 47.4095 31.9137V38.5704L46.0063 38.3746Z" fill="#A7B5BF"/>
<path d="M69.5003 24.7346V25.2893H63.9857C63.5289 25.2893 63.2352 25.3872 62.9415 25.6483C62.6478 25.8441 62.4847 26.3009 62.4847 26.8556V32.925C62.4847 33.3818 62.6805 33.7407 62.8436 34.0344C63.0394 34.2955 63.3983 34.4912 63.9531 34.4912H67.7056V35.046H63.9531C63.4962 35.046 63.1047 35.1439 62.8436 35.307C62.5499 35.5028 62.4847 35.8617 62.4847 36.5144C62.4847 36.8733 62.4847 37.167 62.5826 37.3301C62.6805 37.5259 62.7783 37.6891 62.8762 37.787C62.9741 37.8848 63.1699 37.9827 63.3331 37.9827C63.5289 37.9827 63.692 37.9827 63.9857 37.9827H69.5003V38.5375H61.0815V24.6367H69.5003V24.7346Z" fill="#A7B5BF"/>
<path d="M69.957 25.029C70.9686 24.7353 71.8496 24.5722 72.698 24.6701C73.5138 24.768 74.2317 25.029 74.8843 25.4206C75.5369 25.8121 75.9611 26.269 76.3527 26.9216C76.7116 27.5742 76.9074 28.2268 76.9727 28.8794C77.0706 29.63 76.9727 30.3805 76.7116 31.131C76.4506 31.8815 75.9937 32.632 75.3411 33.2846C75.1453 33.4804 74.9822 33.5783 74.7864 33.7414C74.5906 33.9372 74.5254 34.0351 74.4275 34.1983C74.3296 34.3941 74.3296 34.5572 74.3296 34.753C74.3296 34.9488 74.5254 35.2098 74.6885 35.4056L81.0515 43.1391L80.6926 43.4981L74.2969 35.7646C74.199 35.6667 74.1011 35.5688 73.938 35.4056C73.7422 35.2098 73.6769 35.1119 73.4812 35.0467C73.2854 34.9488 73.1222 34.8509 72.9264 34.753C72.7307 34.753 72.4696 34.753 72.3065 34.753C71.9475 34.9488 71.5886 35.0467 71.4907 35.2098C71.2949 35.4056 71.2296 35.7646 71.2949 36.2214V38.4729H70.0223V25.029H69.957ZM72.5675 25.4206C72.1107 25.3227 71.7517 25.3227 71.5559 25.5185C71.3602 25.7142 71.2949 25.8774 71.2949 26.0732V32.8604C71.2949 33.0562 71.2949 33.2193 71.2949 33.4151C71.2949 33.6109 71.3928 33.7741 71.4907 33.872C71.5886 33.9699 71.6865 34.0677 71.8496 34.1656C72.0454 34.2635 72.3065 34.2635 72.5675 34.1656C73.0243 34.0677 73.4812 33.8067 73.938 33.4151C74.3948 32.9583 74.6559 32.4688 74.9496 31.8162C75.2106 31.1636 75.4064 30.6089 75.5043 29.8584C75.6022 29.2057 75.5043 28.5531 75.3085 27.9005C75.1127 27.2479 74.8517 26.6932 74.3948 26.2363C73.938 25.7795 73.3833 25.4858 72.5675 25.4206Z" fill="#A7B5BF"/>
<path d="M77.9194 20.5255C77.9194 20.1666 78.0173 19.8729 78.311 19.6119C78.6047 19.3508 78.8657 19.2529 79.2573 19.2529C79.6489 19.2529 79.9099 19.3508 80.2036 19.6119C80.4973 19.8729 80.5952 20.1666 80.5952 20.5255C80.5952 20.8845 80.4973 21.1782 80.2036 21.4392C79.9099 21.7002 79.6489 21.7981 79.2573 21.7981C78.8657 21.7981 78.6047 21.7002 78.311 21.4392C78.0173 21.1782 77.9194 20.8845 77.9194 20.5255ZM78.5068 24.637L79.8447 24.7349L79.9425 38.5378L78.5068 38.4399V24.637Z" fill="#A7B5BF"/>
<path d="M30.0708 20.5255C30.0708 20.1666 30.1687 19.8729 30.4624 19.6119C30.756 19.3508 31.0171 19.2529 31.4087 19.2529C31.8002 19.2529 32.0613 19.3508 32.355 19.6119C32.6486 19.8729 32.7465 20.1666 32.7465 20.5255C32.7465 20.8845 32.6486 21.1782 32.355 21.4392C32.0613 21.7002 31.8002 21.7981 31.4087 21.7981C31.0171 21.7981 30.756 21.7002 30.4624 21.4392C30.1687 21.1782 30.0708 20.8845 30.0708 20.5255ZM30.6582 24.637L31.996 24.7349L32.0939 38.5378L30.6582 38.4399V24.637Z" fill="#A7B5BF"/>
<path d="M82.6182 24.6381L89.6991 35.7652C89.8622 36.2221 90.1559 36.4178 90.4169 36.3199C90.678 36.2221 90.7759 36.0263 90.7759 35.5694L90.678 24.6055H91.2001V38.3431L89.9601 38.441L82.8792 27.2159C82.7813 27.0202 82.6182 26.9223 82.5203 26.9223C82.4224 26.9223 82.3571 26.9223 82.2592 26.9223C82.1613 27.0202 82.0961 27.118 82.0961 27.2159C82.0961 27.3138 81.9982 27.5096 81.9982 27.5749V43.4661H81.4761V24.736L82.6182 24.6381Z" fill="#A7B5BF"/>
<path d="M103.632 39.9408C103.371 39.6471 102.914 39.386 102.392 39.2881C101.772 39.1903 101.055 39.0924 100.173 39.0924C99.2924 39.0924 98.1177 39.0924 96.8778 39.0924C95.8009 39.0924 94.9199 38.9945 94.3652 38.7334C93.8431 38.4397 93.5494 37.885 93.5494 37.0692C93.5494 36.7103 93.6473 36.3187 93.8105 36.0577C93.9736 35.764 94.2673 35.6009 94.6262 35.6009H96.323C96.4209 35.6009 96.4862 35.6009 96.5841 35.6009C96.682 35.6009 96.7472 35.6009 96.8451 35.6009C97.563 35.6009 98.2809 35.4051 98.9009 35.144C99.5209 34.8503 100.141 34.4914 100.598 34.0346C101.12 33.5777 101.479 33.023 101.772 32.3704C102.033 31.7178 102.229 30.9673 102.229 30.2168C102.229 29.2052 101.968 28.161 101.413 27.3126C100.891 26.4642 100.239 25.8116 99.3577 25.3548L102.392 25.2569L102.294 24.7021L97.9219 24.8C97.8241 24.7021 97.6609 24.7021 97.4651 24.7021C97.3672 24.7021 97.2041 24.7021 97.0083 24.7021C96.2904 24.7021 95.5725 24.8 94.6915 25.159C94.4957 25.2895 94.2999 25.42 94.1041 25.5179V26.66C94.7241 25.8442 95.5725 25.42 96.7472 25.3221H97.563C98.0851 25.42 98.6398 25.5179 99.0967 25.779C99.5535 26.0726 99.9124 26.4316 100.173 26.7905C100.435 27.2474 100.63 27.7368 100.793 28.2915C100.891 28.8463 100.957 29.4989 100.957 30.1515C100.957 30.902 100.859 31.5546 100.696 32.1094C100.532 32.6641 100.337 33.2188 99.9777 33.6104C99.6188 34.0672 99.1619 34.3609 98.7377 34.6219C98.2809 34.9156 97.6609 34.9809 97.0409 34.9809C96.4209 34.9809 95.8662 34.883 95.3441 34.6219C94.822 34.3283 94.4631 34.0672 94.1041 33.6104C93.8431 33.2514 93.582 32.6641 93.3863 32.1094C93.2231 31.5873 93.1578 31.0325 93.1252 30.5104V26.3011C92.6684 26.8558 92.3094 27.4105 92.0484 28.0631C91.7873 28.7157 91.6895 29.4663 91.6895 30.2168C91.6895 31.2283 91.9505 32.2725 92.5052 33.1209C93.0273 33.9693 93.6799 34.6219 94.561 35.0788H94.1041C93.4842 35.0788 92.9294 35.2745 92.6684 35.6335C92.4073 35.9924 92.2115 36.4819 92.2115 36.9387C92.2115 37.2324 92.3094 37.5913 92.3747 37.885C92.4726 38.1787 92.6358 38.4397 92.8968 38.7334C93.1578 39.0271 93.5168 39.1903 93.8757 39.386C94.2347 39.5818 94.6915 39.6797 95.2136 39.6797C96.5515 39.6797 97.7262 39.6797 98.6072 39.6797C99.4882 39.6797 100.304 39.6797 100.826 39.6797C101.446 39.7776 101.805 39.8755 102.066 40.0387C102.327 40.2344 102.425 40.5934 102.425 41.0502C102.425 41.507 102.425 41.8986 102.327 42.1597C102.229 42.4533 102.164 42.6165 101.968 42.7144C101.805 42.8123 101.511 42.9102 101.152 42.9102C100.793 42.9102 100.337 42.9102 99.7166 42.9102C99.4556 42.9102 98.9988 42.9102 98.3788 42.9102C97.7588 42.9102 97.0409 42.9102 96.2252 42.9102C95.4094 42.9102 94.6915 42.9102 93.9084 42.9102C93.0926 42.9102 92.5705 42.9102 92.1137 42.9102V43.4649H101.838C102.653 43.4649 103.176 43.367 103.534 43.0081C103.796 42.6491 103.991 42.0618 103.991 41.3439C104.089 40.6913 103.893 40.2344 103.632 39.9408Z" fill="#A7B5BF"/>
<path d="M7.28364 15.5149L7.31482 14.9609L7.78635 13.9719L7.86891 12.8638L6.79193 12.2492L6.76074 11.7318L7.84139 11.1465L9.00093 11.7171L9.48896 12.7996L9.98801 12.8638L9.76784 13.9114L9.09266 14.6398L8.94773 14.9609L8.41199 15.4929L7.86891 16.5754L7.28364 15.5149Z" fill="#A7B5BF"/>
<path d="M22.1389 45.0834L20.9555 46.3274L17.8457 48.2446L16.088 48.3455C15.7982 48.0336 15.5101 47.7199 15.2202 47.408C16.0495 47.1952 16.877 46.9824 17.376 46.8539C17.0476 45.61 16.7742 44.5715 16.5008 43.5312H17.1522L17.6053 44.0633C17.9796 44.2174 18.8915 44.5825 18.8915 44.5825L20.4381 44.3826L21.8692 43.8578L22.6416 44.023V44.3826L22.1389 45.0834Z" fill="#A7B5BF"/>
<path d="M12.037 41.1695L12.9544 43.1675L13.358 44.4812L13.7598 44.6371L14.8533 47.0113L15.0441 47.1727L15.2202 47.4057C16.0495 47.1929 16.877 46.9801 17.376 46.8516C17.0476 45.6077 16.7742 44.5692 16.5009 43.529C16.3174 43.1712 16.1321 42.3401 15.9486 41.9823L15.767 40.7549L15.1982 37.3992L14.4533 34.9572L13.824 32.495L12.6626 28.9503L12.3636 26.134L12.0627 24.1654V23.2902L9.23172 21.6482L6.24664 18.7291L5.7109 17.2338L5.1715 16.4688L4.14956 18.186L4.49265 19.3107L4.61191 19.8556C4.78987 19.7584 4.96785 19.663 5.14581 19.5657C5.01004 19.9914 4.87427 20.4171 4.7385 20.8445L4.61191 22.072L4.12938 23.5838L3.92939 24.958L3.86151 26.7964L3.91288 28.7797L3.4487 31.6639L2.49832 35.3737L2.11486 37.8413L1.66352 39.4008L1.33511 41.1659L1.20117 43.5271L1.34978 44.8133L2.75701 43.9987L4.87611 43.8354L5.0926 42.0337L6.14206 38.8156L7.11813 36.6323L8.29235 32.8362L8.68865 32.6308L9.27759 34.0875L10.505 32.9078L10.5564 35.9883L10.6078 37.0396L10.7068 37.6395L11.1362 38.9734L12.037 41.1695Z" fill="#A7B5BF"/>
<path d="M16.5034 43.531L15.953 42.4596L15.9512 41.9844L16.9327 42.566L17.052 42.9935L17.1529 43.531H16.5034Z" fill="#A7B5BF"/>
<path d="M-0.000488281 47.0904L0.195828 45.685L0.626984 44.7841L1.20492 43.5273L1.35353 44.8153L2.76259 44.0007L4.87986 43.8374L4.82849 44.5364L5.01012 45.2685L5.2945 45.8244L6.41001 46.4629L8.17868 46.7014L8.50526 47.1839L7.64477 47.7288L5.73116 47.883L1.03062 47.8261L0.271052 47.6096L-0.000488281 47.0904Z" fill="#A7B5BF"/>
<path d="M12.0631 23.2922L9.23215 21.6501L6.24707 18.7311L6.40669 17.5404L7.86896 16.5753C8.58817 16.7551 10.0247 17.1129 10.0247 17.1129L11.3476 15.8359L11.7017 19.5677L11.9989 22.518L12.0631 23.2922Z" fill="#A7B5BF"/>
<path d="M3.99748 16.5749L3.87088 15.9786L3.6709 15.4906C3.78098 15.4998 3.88923 15.5108 3.99931 15.5236L4.67632 15.1108L5.16986 14.9512L6.80643 15.7144L6.25234 17.118L5.71294 17.2354L5.17353 16.4703L3.99748 16.5749Z" fill="#A7B5BF"/>
<path d="M9.2832 34.0889L10.5106 32.9092L10.151 36.1016V36.4685L9.76206 35.3548L9.2832 34.0889Z" fill="#A7B5BF"/>
<path d="M10.1509 36.1016L10.5105 32.9092L10.5619 35.9915L10.1509 36.1016Z" fill="#A7B5BF"/>
<path d="M3.99756 16.5753L5.17361 16.4707L4.14984 18.188L3.99756 16.5753Z" fill="#A7B5BF"/>
<path d="M4.74037 20.8463C4.69817 20.5161 4.65597 20.1858 4.61377 19.8574C4.79174 19.762 4.9697 19.6647 5.14767 19.5693C5.0119 19.995 4.87613 20.4206 4.74037 20.8463Z" fill="#A7B5BF"/>
<path d="M5.71289 17.2356L6.2523 17.1182L6.40824 17.542L6.24862 18.7309L5.71289 17.2356Z" fill="#A7B5BF"/>
<path d="M10.1509 36.1023L10.5619 35.9922L10.6132 37.0416L10.3564 37.0196L10.1509 36.4692V36.1023Z" fill="#A7B5BF"/>
<path d="M10.3569 37.0195L10.6138 37.0415L10.7129 37.6415L10.3569 37.0195Z" fill="#A7B5BF"/>
<path d="M15.5854 41.5967L15.9506 41.9838L15.9524 42.459L15.5854 41.5967Z" fill="#A7B5BF"/>
<path d="M11.3473 15.8379L10.0244 17.1149C10.0244 17.1149 8.58786 16.7571 7.86865 16.5773L7.87048 16.5736C8.05029 16.214 8.23192 15.8544 8.41173 15.493L8.94747 15.6526C8.9493 15.6544 9.27588 15.8948 9.27588 15.8948L9.93821 14.9169L11.2133 14.8545L11.3473 15.8379Z" fill="#A7B5BF"/>
<path d="M6.40839 17.542L6.25244 17.1182L6.80469 15.7146L7.28355 15.5146L7.86883 16.5751L6.40839 17.542Z" fill="#A7B5BF"/>
<path d="M7.28388 15.5144L6.80502 15.7144L5.16846 14.9511L5.71704 13.876L6.25828 13.8833L7.31507 14.9603L7.28388 15.5144Z" fill="#A7B5BF"/>
<path d="M5.71695 13.8767L5.1702 14.9519L4.67667 15.1115L4.14277 14.9904C4.12442 14.8033 4.10607 14.6161 4.08772 14.4272L3.98682 13.7758L4.67483 13.3135L5.19406 13.3575L5.71695 13.8767Z" fill="#A7B5BF"/>
<path d="M4.08386 14.4266C4.1022 14.6138 4.12055 14.8009 4.1389 14.9899C4.09119 15.1679 4.04349 15.3458 3.99579 15.5238C3.88571 15.511 3.77746 15.4999 3.66738 15.4908C3.64536 15.1367 3.62151 14.7826 3.59766 14.4285L3.83984 14.4248L4.08386 14.4266Z" fill="#A7B5BF"/>
<path d="M3.99756 15.5241C4.04526 15.3462 4.09296 15.1682 4.14067 14.9902L4.67457 15.1113L3.99756 15.5241Z" fill="#A7B5BF"/>
<path d="M9.76807 13.9108L9.98823 12.8632L10.2157 12.5898L10.7478 13.6375L11.2138 14.8539L9.9387 14.9163L10.0249 14.4227L9.76807 13.9108Z" fill="#A7B5BF"/>
<path d="M10.0242 14.4229L9.93801 14.9164L9.27568 15.8943L8.94727 15.6521V14.9604L9.0922 14.6394L10.0242 14.4229Z" fill="#A7B5BF"/>
<path d="M8.94736 14.9609V15.6526L8.41162 15.493C8.58959 15.315 8.76939 15.1371 8.94736 14.9609Z" fill="#A7B5BF"/>
<path d="M3.2583 13.3134L3.07666 12.2988L4.06741 12.7245L3.98484 13.7758L4.08575 14.4271L3.84174 14.4253L3.59956 14.4289L3.2583 13.3134Z" fill="#A7B5BF"/>
<path d="M6.79172 12.249L7.86869 12.8636L7.78613 13.9718L7.3146 14.9607L6.25781 13.8838L6.66879 12.2729L6.79172 12.249Z" fill="#A7B5BF"/>
<path d="M5.71662 13.876L5.19189 13.3549L5.8212 12.6504L6.25786 12.843V13.8833L5.71662 13.876Z" fill="#A7B5BF"/>
<path d="M3.98486 13.7757L4.06926 12.7244L4.58115 11.7135L5.15725 11.1777L6.22505 11.9079L5.937 12.0896L5.54621 12.2987L4.67288 13.3133L3.98486 13.7757Z" fill="#A7B5BF"/>
<path d="M4.67236 13.3134L5.54569 12.2988L5.8209 12.6511L5.19159 13.3556L4.67236 13.3134Z" fill="#A7B5BF"/>
<path d="M9.00076 11.7168L7.84122 11.1462L7.39355 11.0747L7.71646 10.5151L8.20266 10.4124L8.40815 10.1041C8.22835 10.1041 8.05038 10.1041 7.87058 10.1041L8.7806 9.43262L9.2723 9.51335L9.9328 11.271L10.2172 12.592C10.2172 12.592 9.98967 12.8635 9.98784 12.8654L9.4888 12.8012L9.00076 11.7168Z" fill="#A7B5BF"/>
<path d="M6.22503 11.9077L5.15723 11.1775L5.23061 10.6638L6.89103 10.1904L6.78829 10.6656L6.87818 10.9628L6.81948 11.1793L6.76077 11.7316L6.79196 12.249L6.66903 12.2728L6.22503 11.9077Z" fill="#A7B5BF"/>
<path d="M6.76025 11.7319L6.81897 11.1797L7.39323 11.0732L7.8409 11.1466L6.76025 11.7319Z" fill="#A7B5BF"/>
<path d="M10.0243 14.423L9.09229 14.6395L9.76746 13.9111L10.0243 14.423Z" fill="#A7B5BF"/>
<path d="M3.07666 12.2982L4.06924 12.7238L4.58113 11.7129L5.15723 11.1772L5.23062 10.6634L5.18291 9.71857L4.66002 9.56445L4.08575 9.99744L3.4913 10.102L3.2638 11.3827L3.07666 12.2982Z" fill="#A7B5BF"/>
<path d="M6.22506 11.9072L6.66906 12.2723L6.25809 13.8832V12.8429L5.93701 12.0889L6.22506 11.9072Z" fill="#A7B5BF"/>
<path d="M5.93718 12.0889L6.25826 12.8429L5.82159 12.6503L5.54639 12.298L5.93718 12.0889Z" fill="#A7B5BF"/>
<path d="M6.8907 10.19L6.79346 9.57542L6.52743 9.11307L6.18066 9.00115C6.20085 8.47092 6.22103 7.94252 6.24304 7.41229L6.83566 7.38477L7.30901 7.41229C7.49248 7.61043 7.67779 7.81042 7.86126 8.00857C8.0374 8.15718 8.21353 8.30579 8.38783 8.4544L8.62451 8.581L8.78046 9.42864L7.87044 10.1001L6.78795 10.6634L6.8907 10.19Z" fill="#A7B5BF"/>
<path d="M7.71596 10.5135L7.39306 11.0731L6.7876 10.6658L7.86825 10.1025L7.71596 10.5135Z" fill="#A7B5BF"/>
<path d="M6.81879 11.1797L6.8775 10.9632L6.7876 10.666L7.39306 11.0733L6.81879 11.1797Z" fill="#A7B5BF"/>
<path d="M8.62305 8.58301L9.2707 9.51137L8.779 9.43065L8.62305 8.58301Z" fill="#A7B5BF"/>
<path d="M7.71631 10.5135L7.86859 10.1025H8.408L8.20251 10.4108L7.71631 10.5135Z" fill="#A7B5BF"/>
<path d="M6.79301 9.57524L6.89025 10.1899L5.228 10.6632L5.18213 9.71835C5.18213 9.71835 5.85363 9.20096 6.17838 9.00098L6.52514 9.11106L6.79301 9.57524Z" fill="#A7B5BF"/>
<path d="M4.08517 9.99792L4.65944 9.56493L4.08701 9.53373L3.57695 9.51172L3.49072 10.1025L4.08517 9.99792Z" fill="#A7B5BF"/>
<path d="M7.30749 7.41274L7.15888 7.20175L6.68552 6.97058C6.52957 6.41833 6.42499 5.83122 6.26904 5.27897C6.64516 5.26062 6.96807 5.27714 7.34418 5.25879L8.41199 5.79086C8.25053 6.16147 8.08908 6.53208 7.92762 6.90086L7.91845 6.98158L7.95331 7.36137L7.69645 7.51182C7.69645 7.51365 7.30749 7.41274 7.30749 7.41274Z" fill="#A7B5BF"/>
<path d="M8.04122 7.51385L8.33844 7.72667L8.38797 8.45873C8.21184 8.31012 8.03571 8.16151 7.85958 8.01289C7.7972 7.81841 7.75867 7.71016 7.69629 7.51568L7.95315 7.36523L8.04122 7.51385Z" fill="#A7B5BF"/>
<path d="M7.69609 7.51412C7.75847 7.7086 7.79699 7.81684 7.85937 8.01132C7.6759 7.81317 7.4906 7.61319 7.30713 7.41504L7.69609 7.51412Z" fill="#A7B5BF"/>
<path d="M6.68521 6.97046L6.83382 7.38511L6.24121 7.41263L6.24855 7.00349L6.46504 6.9668L6.68521 6.97046Z" fill="#A7B5BF"/>
<path d="M8.36601 7.48205L7.95136 7.36096L7.9165 6.98117L7.92568 6.90044C8.40454 6.89127 9.64297 6.87109 9.64297 6.87109L9.3696 7.31509C9.03568 7.37197 8.70176 7.42701 8.36601 7.48205Z" fill="#A7B5BF"/>
<path d="M5.29612 6.38672L5.72545 6.75366L5.29612 6.98116L4.87598 6.92062L5.29612 6.38672Z" fill="#A7B5BF"/>
<path d="M5.29639 6.98141L5.72571 6.75391L6.2486 7.00343C6.2486 7.00343 6.24127 7.4144 6.2431 7.4144C6.24127 7.4144 5.60829 7.13553 5.29639 6.98141Z" fill="#A7B5BF"/>
<path d="M5.29639 6.38751L5.72571 6.75446L6.2486 7.00398L6.4651 6.96912L6.68527 6.97279C6.52932 6.42054 6.42474 5.83343 6.26879 5.28118L5.97707 5.13441L5.72021 4.70508L5.29639 6.38751Z" fill="#A7B5BF"/>
<path d="M5.72021 4.70242L6.2688 3.64746L10.5657 4.65105L9.42634 4.76664L7.34211 5.25834C6.96599 5.27669 6.64308 5.26017 6.26696 5.27852L5.97524 5.13175L5.72021 4.70242Z" fill="#A7B5BF"/>
<path d="M9.42609 4.76891L10.5654 4.65332L11.0021 4.82212L11.1305 5.13585L11.0241 5.43124C10.9195 5.3762 10.8205 5.31565 10.7251 5.24594C10.6553 5.41289 10.5875 5.57802 10.5177 5.74498C10.3728 6.12843 10.226 6.51189 10.0811 6.89534L10.026 6.86782L9.84257 6.86966L8.3858 6.89351L7.92529 6.90085C8.08675 6.53023 8.2482 6.15962 8.40965 5.79085C8.74908 5.45142 9.0885 5.11017 9.42609 4.76891Z" fill="#A7B5BF"/>
<path d="M9.42603 4.76855L8.4096 5.79049L7.3418 5.26026L9.42603 4.76855Z" fill="#A7B5BF"/>
<path d="M10.4884 6.86431C10.3526 6.87349 10.2168 6.88449 10.0811 6.8955C10.226 6.51205 10.3728 6.12859 10.5177 5.74514C10.5874 5.57818 10.6553 5.41305 10.725 5.24609C10.8204 5.31581 10.9195 5.37636 11.0241 5.4314C10.8461 5.90843 10.6663 6.38545 10.4884 6.86431Z" fill="#A7B5BF"/>
<path d="M10.7273 5.24414C10.6576 5.4111 10.5897 5.57622 10.52 5.74318C10.5879 5.57622 10.6576 5.4111 10.7273 5.24414Z" fill="#A7B5BF"/>
<path d="M14.8529 47.0117L13.8199 46.6503L12.7319 46.1732L12.7741 45.6834L13.7594 44.6357L14.8529 47.0117Z" fill="#A7B5BF"/>
<path d="M12.7745 45.6831L12.6626 45.2464L13.358 44.4795L13.7598 44.6354" fill="#A7B5BF"/>
<path d="M11.1785 46.186C10.6043 46.0557 10.03 45.9273 9.45575 45.797C9.13835 45.7383 8.82278 45.6796 8.50537 45.6191C9.01909 45.4319 9.53465 45.2448 10.0484 45.0558L11.1253 45.043L12.1711 45.0797L12.6647 45.2448L12.7766 45.6815L12.7344 46.1732C12.5491 46.2245 12.3656 46.2759 12.1803 46.3273C11.8446 46.2796 11.5106 46.2319 11.1785 46.186Z" fill="#A7B5BF"/>
<path d="M7.86118 44.6461C7.86669 44.8333 7.87403 45.0204 7.87953 45.2075C7.40801 45.0424 6.93832 44.8773 6.4668 44.7122C6.75118 44.6681 7.03739 44.6241 7.32177 44.5801C7.50341 44.6021 7.68138 44.6241 7.86118 44.6461Z" fill="#A7B5BF"/>
<path d="M14.8537 47.0109L15.0445 47.1723L15.2207 47.4053L16.0885 48.3447L14.6739 48.552L12.4998 48.763L11.7696 48.5575L11.687 48.264L12.5695 48.1869L13.2117 47.8915L14.0226 47.398L14.0978 47.009L13.8208 46.6494L14.8537 47.0109Z" fill="#A7B5BF"/>
<path d="M11.7122 4.27524C11.7067 3.512 11.7012 2.74876 11.6957 1.98552C11.6168 1.66445 11.4003 1.46813 11.4003 1.46813L11.1013 1.22595C10.5142 0.88836 9.18583 0.248047 8.36571 0.248047C8.20242 0.266394 8.00978 0.325104 7.89052 0.407666C7.34561 0.958081 6.77685 1.53235 6.23194 2.08276C6.23194 2.0846 6.23194 2.08643 6.23194 2.08827C5.65033 2.0057 5.25403 2.03873 5.18248 2.21853C5.11093 2.39833 5.37512 2.69189 5.85949 3.02948L6.05581 3.1579L6.25763 3.28633L6.26496 3.64961L7.46853 3.93032L8.44828 4.34496C8.44828 4.34496 12.1305 5.41644 12.2902 5.01463C12.358 4.84767 12.1305 4.58164 11.7122 4.27524Z" fill="#A7B5BF"/>
<path d="M5.72021 4.70244L5.77159 3.86031L5.91469 3.46217L5.85965 3.02734L6.2688 3.64748L5.72021 4.70244Z" fill="#A7B5BF"/>
<path d="M6.26852 3.64748L6.25934 3.28604L6.05753 3.15761L5.85938 3.02734L6.26852 3.64748Z" fill="#A7B5BF"/>
<path d="M7.92568 6.90285L8.41004 5.79102V6.20199L8.34032 6.54141L8.31831 6.75424L8.38619 6.89368L8.0009 7.17806L7.9165 6.98174L7.92568 6.90285Z" fill="#A7B5BF"/>
<path d="M5.29639 6.98144L4.87625 6.9209L4.11484 7.84192L3.65799 9.2253L3.5791 9.51152L4.08915 9.53353L4.66158 9.56656L5.18448 9.72068C5.18448 9.72068 5.85598 9.20329 6.18073 9.0033C6.20091 8.47307 6.22109 7.94467 6.24311 7.41444C6.24127 7.41444 5.60829 7.13556 5.29639 6.98144Z" fill="#A7B5BF"/>
<path d="M8.69631 6.88834L8.47982 6.64615L8.4101 6.20215L8.34038 6.54157L8.31836 6.7544L8.38624 6.89384L8.69631 6.88834Z" fill="#A7B5BF"/>
<path d="M9.36949 7.31738L8.55854 7.71185L8.33838 7.72469L8.3659 7.48251L9.36949 7.31738Z" fill="#A7B5BF"/>
<path d="M9.36963 7.31681L9.73107 7.19022L9.84298 6.86914L9.64484 6.87281L9.36963 7.31681Z" fill="#A7B5BF"/>
<path d="M15.769 40.7568L16.1562 41.5036L16.9323 42.5659L15.9507 41.9843L15.769 40.7568Z" fill="#A7B5BF"/>
<path d="M9.5673 4.37645C9.4884 4.40213 9.42052 4.41864 9.36915 4.42598C9.31594 4.43332 9.27375 4.43332 9.23889 4.42415C9.22237 4.42048 9.21136 4.41497 9.20219 4.40763C9.19302 4.40029 9.19118 4.39479 9.19302 4.38745C9.171 4.38929 9.15082 4.38745 9.1288 4.38562C9.10679 4.38378 9.08293 4.37828 9.05908 4.37277L9.1288 4.34159C9.14531 4.34526 9.15999 4.34709 9.17651 4.34893C9.19118 4.35076 9.2077 4.35076 9.22237 4.34893C9.22604 4.34526 9.23155 4.34159 9.23705 4.33608C9.24255 4.33241 9.24806 4.32691 9.2554 4.32324C9.27741 4.30856 9.30494 4.29388 9.34163 4.27921C9.37832 4.26453 9.41685 4.25169 9.46089 4.23884C9.52693 4.2205 9.58748 4.20949 9.64069 4.20582C9.6939 4.20215 9.73976 4.20398 9.77646 4.21499C9.7948 4.22049 9.80765 4.226 9.81682 4.23334C9.82599 4.24068 9.82966 4.24985 9.8315 4.25902L9.85535 4.24801C9.87003 4.24251 9.88104 4.23884 9.88654 4.23701C9.89388 4.23517 9.89938 4.23701 9.90672 4.23884C9.9269 4.24435 9.93975 4.25168 9.94892 4.25902C9.95809 4.26636 9.95809 4.2737 9.94892 4.27921C9.94709 4.28104 9.92873 4.28838 9.89388 4.29939C9.85902 4.31039 9.82783 4.32324 9.79847 4.33425C9.73976 4.35626 9.69206 4.37461 9.65536 4.39112C9.61867 4.40763 9.59115 4.42048 9.57647 4.43149C9.56546 4.43882 9.5618 4.44433 9.56547 4.44983C9.56913 4.45534 9.58198 4.46084 9.60399 4.47001L9.53427 4.50121L9.52693 4.49937C9.4829 4.48653 9.45538 4.47552 9.4462 4.46451C9.43703 4.4535 9.44254 4.44066 9.46272 4.42782C9.4719 4.42231 9.48474 4.41498 9.50125 4.4058C9.51776 4.39663 9.53794 4.38929 9.5673 4.37645ZM9.75811 4.28654C9.75627 4.28104 9.7526 4.27554 9.7471 4.27187C9.7416 4.2682 9.73609 4.26453 9.72875 4.2627C9.71224 4.25903 9.68656 4.25719 9.6517 4.26086C9.61684 4.26453 9.57831 4.27003 9.53611 4.28104C9.49758 4.29021 9.46088 4.30122 9.42603 4.3159C9.39117 4.32874 9.36548 4.34159 9.34896 4.35443C9.33612 4.3636 9.32878 4.37094 9.32695 4.37645C9.32511 4.38195 9.33062 4.38562 9.33979 4.38929C9.36731 4.39663 9.41685 4.39296 9.4884 4.37461C9.55996 4.35626 9.64803 4.32874 9.75811 4.28654Z" fill="#A7B5BF"/>
<path d="M9.53125 4.50265L9.60097 4.47146C9.61565 4.47513 9.63583 4.47696 9.65968 4.47696C9.68353 4.47696 9.71655 4.47329 9.75325 4.46595C9.82113 4.42742 9.89636 4.39073 9.97525 4.3522C10.0541 4.31367 10.1367 4.27697 10.2211 4.24028C10.2908 4.21093 10.344 4.19074 10.3789 4.1834C10.4137 4.17423 10.4431 4.1724 10.4633 4.1779C10.478 4.18157 10.4835 4.18891 10.4835 4.19809C10.4816 4.20726 10.4725 4.21826 10.4578 4.22927C10.4376 4.24395 10.4027 4.25863 10.355 4.27514C10.3073 4.29165 10.2523 4.30817 10.1917 4.32284C10.1055 4.36137 10.0285 4.39623 9.96241 4.42926C9.89452 4.46228 9.85233 4.4843 9.83581 4.49715C9.82114 4.50632 9.81563 4.51549 9.81747 4.52099C9.8193 4.5265 9.82847 4.53384 9.84682 4.53751L9.7771 4.5687L9.76792 4.56686C9.73673 4.55769 9.71655 4.54852 9.70738 4.53751C9.69821 4.5265 9.70004 4.51549 9.71289 4.50265C9.67803 4.50815 9.64684 4.51182 9.61565 4.51182C9.58262 4.50999 9.5551 4.50632 9.53125 4.50265Z" fill="#A7B5BF"/>
<path d="M9.7749 4.5671L9.84462 4.53591C9.8593 4.53958 9.87948 4.54141 9.90333 4.54141C9.92719 4.54141 9.96021 4.53774 9.9969 4.53041C10.0648 4.49188 10.14 4.45518 10.2189 4.41665C10.2978 4.37813 10.3804 4.34143 10.4648 4.30473C10.5345 4.27538 10.5877 4.2552 10.6225 4.24786C10.6574 4.23868 10.6868 4.23685 10.7069 4.24235C10.7216 4.24602 10.7271 4.25337 10.7271 4.26254C10.7271 4.27171 10.7161 4.28272 10.7014 4.29373C10.6813 4.3084 10.6464 4.32308 10.5987 4.33959C10.551 4.35611 10.4959 4.37262 10.4354 4.3873C10.3492 4.42583 10.2721 4.46068 10.2061 4.49371C10.1382 4.52673 10.096 4.54875 10.0795 4.56159C10.0648 4.57077 10.0593 4.57994 10.0611 4.58544C10.063 4.59095 10.0721 4.59829 10.0905 4.60196L10.0208 4.63315L10.0116 4.63131C9.98039 4.62214 9.96021 4.61296 9.95103 4.60196C9.94186 4.59095 9.9437 4.57994 9.95654 4.5671C9.92168 4.5726 9.89049 4.57627 9.8593 4.57627C9.82444 4.57627 9.79875 4.5726 9.7749 4.5671Z" fill="#A7B5BF"/>
<path d="M6.83416 7.38535L6.68555 6.9707L7.15891 7.20188L7.30752 7.41287L6.83416 7.38535Z" fill="#A7B5BF"/>
<path d="M7.95264 7.36133L8.04071 7.51361L8.33793 7.7246L8.36545 7.48242L7.95264 7.36133Z" fill="#A7B5BF"/>
<path d="M18.9155 15.8669C20.4625 15.7165 21.7839 15.8669 22.8797 16.3182C23.9755 16.7479 24.878 17.3925 25.587 18.2519C26.2961 19.1114 26.8225 20.132 27.1663 21.3137C27.5315 22.474 27.7464 23.688 27.8108 24.9556C27.8323 26.8035 27.5852 28.3075 27.0696 29.4678C26.5754 30.628 25.9523 31.5412 25.2003 32.2073C24.9854 32.3792 24.7813 32.551 24.5879 32.7229C24.416 32.8948 24.2871 33.0775 24.2012 33.2708C24.1152 33.4642 24.0937 33.6791 24.1367 33.9154C24.1797 34.1303 24.3193 34.3881 24.5557 34.6889L27.7464 38.492L27.2952 38.8788L24.1367 35.1401C24.0293 35.0327 23.8896 34.9038 23.7177 34.7534C23.5673 34.5815 23.3954 34.4311 23.202 34.3022C23.0087 34.1733 22.7831 34.0873 22.5252 34.0443C22.2889 33.9799 22.031 33.9906 21.7517 34.0766C21.279 34.2485 20.946 34.4418 20.7526 34.6567C20.5592 34.8501 20.4733 35.2476 20.4948 35.8492L20.4625 38.4275H18.9155V15.8669ZM21.8806 16.7049C21.4294 16.576 21.0856 16.619 20.8493 16.8338C20.6129 17.0487 20.4948 17.2743 20.4948 17.5106V31.7561C20.4948 31.9709 20.5055 32.1965 20.527 32.4329C20.57 32.6692 20.6452 32.8733 20.7526 33.0452C20.86 33.1956 21.0212 33.3031 21.236 33.3675C21.4509 33.432 21.741 33.4105 22.1062 33.3031C22.407 33.1956 22.6864 33.0775 22.9442 32.9485C23.2235 32.8196 23.4814 32.6907 23.7177 32.5618C24.6201 32.0461 25.2755 31.2082 25.6837 30.0479C26.1134 28.8876 26.3176 27.1902 26.2961 24.9556C26.2746 24.3111 26.2209 23.5805 26.1349 22.764C26.049 21.9261 25.8556 21.1096 25.5548 20.3146C25.254 19.5196 24.8135 18.7998 24.2334 18.1552C23.6533 17.4892 22.869 17.0057 21.8806 16.7049Z" fill="url(#paint0_linear_243_1486)"/>
<defs>
<linearGradient id="paint0_linear_243_1486" x1="23.4276" y1="23.8003" x2="23.4276" y2="36.6921" gradientUnits="userSpaceOnUse">
<stop stop-color="#EF0E0E"/>
<stop offset="1" stop-color="#A90000"/>
</linearGradient>
</defs>
</svg>
