<svg width="108" height="111" viewBox="0 0 108 111" fill="none" xmlns="http://www.w3.org/2000/svg">
<path d="M28.5 84C41.5477 84 52.125 73.4227 52.125 60.375C52.125 47.3273 41.5477 36.75 28.5 36.75C15.4523 36.75 4.875 47.3273 4.875 60.375C4.875 73.4227 15.4523 84 28.5 84Z" stroke="#6B96A3" stroke-width="4" stroke-linecap="round" stroke-linejoin="round"/>
<path d="M28.5 84V104.25" stroke="#6B96A3" stroke-width="4" stroke-linecap="round" stroke-linejoin="round"/>
<path d="M38.625 94.125H18.375" stroke="#6B96A3" stroke-width="4" stroke-linecap="round" stroke-linejoin="round"/>
<path d="M62.5937 72.5625C77.0394 72.5625 88.75 60.8519 88.75 46.4062C88.75 31.9605 77.0394 20.25 62.5937 20.25C48.148 20.25 36.4375 31.9605 36.4375 46.4062C36.4375 60.8519 48.148 72.5625 62.5937 72.5625Z" stroke="#6B96A3" stroke-width="4" stroke-linecap="round" stroke-linejoin="round"/>
<path d="M100.562 8.4375L82 27" stroke="#6B96A3" stroke-width="4" stroke-linecap="round" stroke-linejoin="round"/>
<path d="M78.625 8.4375H100.562V30.375" stroke="#6B96A3" stroke-width="4" stroke-linecap="round" stroke-linejoin="round"/>
</svg>
