<svg width="145" height="149" viewBox="0 0 145 149" fill="none" xmlns="http://www.w3.org/2000/svg">
<path d="M38.2637 112.757C55.7815 112.757 69.9824 98.5584 69.9824 81.0439C69.9824 63.5294 55.7815 49.3311 38.2637 49.3311C20.7459 49.3311 6.54492 63.5294 6.54492 81.0439C6.54492 98.5584 20.7459 112.757 38.2637 112.757Z" stroke="#BACED4" stroke-width="6" stroke-linecap="round" stroke-linejoin="round"/>
<path d="M38.2637 112.757V139.939" stroke="#BACED4" stroke-width="6" stroke-linecap="round" stroke-linejoin="round"/>
<path d="M51.8574 126.348H24.6699" stroke="#BACED4" stroke-width="6" stroke-linecap="round" stroke-linejoin="round"/>
<path d="M84.0381 97.4037C103.433 97.4037 119.155 81.6841 119.155 62.2931C119.155 42.902 103.433 27.1824 84.0381 27.1824C64.6434 27.1824 48.9209 42.902 48.9209 62.2931C48.9209 81.6841 64.6434 97.4037 84.0381 97.4037Z" stroke="#BACED4" stroke-width="6" stroke-linecap="round" stroke-linejoin="round"/>
<path d="M135.015 11.326L110.093 36.2432" stroke="#BACED4" stroke-width="6" stroke-linecap="round" stroke-linejoin="round"/>
<path d="M105.562 11.326H135.015V40.7736" stroke="#BACED4" stroke-width="6" stroke-linecap="round" stroke-linejoin="round"/>
</svg>
