<svg width="48" height="33" viewBox="0 0 48 33" fill="none" xmlns="http://www.w3.org/2000/svg">
<g filter="url(#filter0_d_2001_445)">
<path d="M18.984 16.5317L9.82932 16.5317M14.4064 21.0629L14.4064 12.0004M38.338 16.2759L26.4691 16.2748M38.338 16.2759L31.3239 9.33379M38.338 16.2759L31.3252 23.2168M22.9069 24.8289C27.5256 29.4003 35.0134 29.401 39.6313 24.8305C44.2492 20.26 44.2485 12.849 39.6297 8.27762C35.011 3.70624 27.5232 3.70555 22.9053 8.27607C18.2875 12.8466 18.2881 20.2576 22.9069 24.8289ZM4.83887 16.5733C4.83887 22.4126 9.62067 27.1462 15.5194 27.1462C21.418 27.1462 26.1998 22.4126 26.1998 16.5733C26.1998 10.7341 21.418 6.00042 15.5194 6.00042C9.62068 6.00042 4.83887 10.7341 4.83887 16.5733Z" stroke="black" stroke-width="1.5" stroke-linecap="round" stroke-linejoin="round" shape-rendering="crispEdges"/>
</g>
<line x1="0.5" y1="-0.5" x2="0.667048" y2="-0.5" transform="matrix(-0.503871 -0.863779 0.868243 -0.496139 20.0176 24.4385)" stroke="url(#paint0_linear_2001_445)" stroke-linecap="round"/>
<line x1="0.5" y1="-0.5" x2="0.667048" y2="-0.5" transform="matrix(-0.503871 -0.863779 0.868243 -0.496139 11.3438 9.56946)" stroke="url(#paint1_linear_2001_445)" stroke-linecap="round"/>
<line x1="0.5" y1="-0.5" x2="0.673079" y2="-0.5" transform="matrix(-0.868243 0.496139 -0.503871 -0.863779 23.4072 11.916)" stroke="url(#paint2_linear_2001_445)" stroke-linecap="round"/>
<line x1="0.5" y1="-0.5" x2="0.673079" y2="-0.5" transform="matrix(-0.868243 0.496139 -0.503871 -0.863779 8.38379 20.501)" stroke="url(#paint3_linear_2001_445)" stroke-linecap="round"/>
<line x1="0.5" y1="-0.5" x2="0.673079" y2="-0.5" transform="matrix(-0.868243 -0.496139 0.503871 -0.863779 23.4072 21.083)" stroke="url(#paint4_linear_2001_445)" stroke-linecap="round"/>
<line x1="0.5" y1="-0.5" x2="0.673079" y2="-0.5" transform="matrix(-0.868243 -0.496139 0.503871 -0.863779 8.38379 12.498)" stroke="url(#paint5_linear_2001_445)" stroke-linecap="round"/>
<line x1="0.5" y1="-0.5" x2="0.667048" y2="-0.5" transform="matrix(-0.503871 0.863779 -0.868243 -0.496139 20.0176 8.56067)" stroke="url(#paint6_linear_2001_445)" stroke-linecap="round"/>
<line x1="0.5" y1="-0.5" x2="0.667048" y2="-0.5" transform="matrix(-0.503871 0.863779 -0.868243 -0.496139 11.3438 23.4297)" stroke="url(#paint7_linear_2001_445)" stroke-linecap="round"/>
<line x1="24.1484" y1="17" x2="23.9724" y2="17" stroke="url(#paint8_linear_2001_445)" stroke-linecap="round"/>
<line x1="6.80078" y1="17" x2="6.6247" y2="17" stroke="url(#paint9_linear_2001_445)" stroke-linecap="round"/>
<line x1="15.8867" y1="7.83301" x2="15.8867" y2="7.99703" stroke="url(#paint10_linear_2001_445)" stroke-linecap="round"/>
<line x1="15.8867" y1="25.002" x2="15.8867" y2="25.166" stroke="url(#paint11_linear_2001_445)" stroke-linecap="round"/>
<line x1="0.5" y1="-0.5" x2="0.836801" y2="-0.5" transform="matrix(-0.503871 -0.863779 0.868243 -0.496139 36.6875 25.5938)" stroke="url(#paint12_linear_2001_445)" stroke-linecap="round"/>
<line x1="0.5" y1="-0.5" x2="0.836801" y2="-0.5" transform="matrix(-0.503871 -0.863779 0.868243 -0.496139 26.752 8.56152)" stroke="url(#paint13_linear_2001_445)" stroke-linecap="round"/>
<line x1="0.5" y1="-0.5" x2="0.843709" y2="-0.5" transform="matrix(-0.868243 0.496139 -0.503871 -0.863779 40.5703 11.25)" stroke="url(#paint14_linear_2001_445)" stroke-linecap="round"/>
<line x1="0.5" y1="-0.5" x2="0.843709" y2="-0.5" transform="matrix(-0.868243 0.496139 -0.503871 -0.863779 23.3623 21.083)" stroke="url(#paint15_linear_2001_445)" stroke-linecap="round"/>
<line x1="0.5" y1="-0.5" x2="0.843709" y2="-0.5" transform="matrix(-0.868243 -0.496139 0.503871 -0.863779 40.5703 21.75)" stroke="url(#paint16_linear_2001_445)" stroke-linecap="round"/>
<line x1="0.5" y1="-0.5" x2="0.843709" y2="-0.5" transform="matrix(-0.868243 -0.496139 0.503871 -0.863779 23.3623 11.917)" stroke="url(#paint17_linear_2001_445)" stroke-linecap="round"/>
<line x1="0.5" y1="-0.5" x2="0.836801" y2="-0.5" transform="matrix(-0.503871 0.863779 -0.868243 -0.496139 36.6895 7.40625)" stroke="url(#paint18_linear_2001_445)" stroke-linecap="round"/>
<line x1="0.5" y1="-0.5" x2="0.836801" y2="-0.5" transform="matrix(-0.503871 0.863779 -0.868243 -0.496139 26.7539 24.4385)" stroke="url(#paint19_linear_2001_445)" stroke-linecap="round"/>
<line x1="41.4922" y1="17" x2="41.145" y2="17" stroke="url(#paint20_linear_2001_445)" stroke-linecap="round"/>
<line x1="21.6221" y1="17" x2="21.2749" y2="17" stroke="url(#paint21_linear_2001_445)" stroke-linecap="round"/>
<line x1="31.8828" y1="6.5" x2="31.8828" y2="6.83333" stroke="url(#paint22_linear_2001_445)" stroke-linecap="round"/>
<line x1="31.8828" y1="26.167" x2="31.8828" y2="26.5003" stroke="url(#paint23_linear_2001_445)" stroke-linecap="round"/>
<defs>
<filter id="filter0_d_2001_445" x="3.08887" y="4.09863" width="41.7554" height="26.9093" filterUnits="userSpaceOnUse" color-interpolation-filters="sRGB">
<feFlood flood-opacity="0" result="BackgroundImageFix"/>
<feColorMatrix in="SourceAlpha" type="matrix" values="0 0 0 0 0 0 0 0 0 0 0 0 0 0 0 0 0 0 127 0" result="hardAlpha"/>
<feOffset dy="1"/>
<feGaussianBlur stdDeviation="0.5"/>
<feComposite in2="hardAlpha" operator="out"/>
<feColorMatrix type="matrix" values="0 0 0 0 1 0 0 0 0 1 0 0 0 0 1 0 0 0 0.25 0"/>
<feBlend mode="normal" in2="BackgroundImageFix" result="effect1_dropShadow_2001_445"/>
<feBlend mode="normal" in="SourceGraphic" in2="effect1_dropShadow_2001_445" result="shape"/>
</filter>
<linearGradient id="paint0_linear_2001_445" x1="0.583524" y1="0" x2="0.583524" y2="1" gradientUnits="userSpaceOnUse">
<stop stop-color="#DFC188"/>
<stop offset="1" stop-color="#7E6941"/>
</linearGradient>
<linearGradient id="paint1_linear_2001_445" x1="0.583524" y1="0" x2="0.583524" y2="1" gradientUnits="userSpaceOnUse">
<stop stop-color="#DFC188"/>
<stop offset="1" stop-color="#7E6941"/>
</linearGradient>
<linearGradient id="paint2_linear_2001_445" x1="0.58654" y1="0" x2="0.58654" y2="1" gradientUnits="userSpaceOnUse">
<stop stop-color="#DFC188"/>
<stop offset="1" stop-color="#7E6941"/>
</linearGradient>
<linearGradient id="paint3_linear_2001_445" x1="0.58654" y1="0" x2="0.58654" y2="1" gradientUnits="userSpaceOnUse">
<stop stop-color="#DFC188"/>
<stop offset="1" stop-color="#7E6941"/>
</linearGradient>
<linearGradient id="paint4_linear_2001_445" x1="0.58654" y1="0" x2="0.58654" y2="1" gradientUnits="userSpaceOnUse">
<stop stop-color="#DFC188"/>
<stop offset="1" stop-color="#7E6941"/>
</linearGradient>
<linearGradient id="paint5_linear_2001_445" x1="0.58654" y1="0" x2="0.58654" y2="1" gradientUnits="userSpaceOnUse">
<stop stop-color="#DFC188"/>
<stop offset="1" stop-color="#7E6941"/>
</linearGradient>
<linearGradient id="paint6_linear_2001_445" x1="0.583524" y1="0" x2="0.583524" y2="1" gradientUnits="userSpaceOnUse">
<stop stop-color="#DFC188"/>
<stop offset="1" stop-color="#7E6941"/>
</linearGradient>
<linearGradient id="paint7_linear_2001_445" x1="0.583524" y1="0" x2="0.583524" y2="1" gradientUnits="userSpaceOnUse">
<stop stop-color="#DFC188"/>
<stop offset="1" stop-color="#7E6941"/>
</linearGradient>
<linearGradient id="paint8_linear_2001_445" x1="24.0604" y1="16.5" x2="24.0604" y2="15.5" gradientUnits="userSpaceOnUse">
<stop stop-color="#DFC188"/>
<stop offset="1" stop-color="#7E6941"/>
</linearGradient>
<linearGradient id="paint9_linear_2001_445" x1="6.71274" y1="16.5" x2="6.71274" y2="15.5" gradientUnits="userSpaceOnUse">
<stop stop-color="#DFC188"/>
<stop offset="1" stop-color="#7E6941"/>
</linearGradient>
<linearGradient id="paint10_linear_2001_445" x1="15.3867" y1="7.91502" x2="14.3867" y2="7.91502" gradientUnits="userSpaceOnUse">
<stop stop-color="#DFC188"/>
<stop offset="1" stop-color="#7E6941"/>
</linearGradient>
<linearGradient id="paint11_linear_2001_445" x1="15.3867" y1="25.084" x2="14.3867" y2="25.084" gradientUnits="userSpaceOnUse">
<stop stop-color="#DFC188"/>
<stop offset="1" stop-color="#7E6941"/>
</linearGradient>
<linearGradient id="paint12_linear_2001_445" x1="0.6684" y1="0" x2="0.6684" y2="1" gradientUnits="userSpaceOnUse">
<stop stop-color="#DFC188"/>
<stop offset="1" stop-color="#7E6941"/>
</linearGradient>
<linearGradient id="paint13_linear_2001_445" x1="0.6684" y1="0" x2="0.6684" y2="1" gradientUnits="userSpaceOnUse">
<stop stop-color="#DFC188"/>
<stop offset="1" stop-color="#7E6941"/>
</linearGradient>
<linearGradient id="paint14_linear_2001_445" x1="0.671855" y1="0" x2="0.671855" y2="1" gradientUnits="userSpaceOnUse">
<stop stop-color="#DFC188"/>
<stop offset="1" stop-color="#7E6941"/>
</linearGradient>
<linearGradient id="paint15_linear_2001_445" x1="0.671855" y1="0" x2="0.671855" y2="1" gradientUnits="userSpaceOnUse">
<stop stop-color="#DFC188"/>
<stop offset="1" stop-color="#7E6941"/>
</linearGradient>
<linearGradient id="paint16_linear_2001_445" x1="0.671855" y1="0" x2="0.671855" y2="1" gradientUnits="userSpaceOnUse">
<stop stop-color="#DFC188"/>
<stop offset="1" stop-color="#7E6941"/>
</linearGradient>
<linearGradient id="paint17_linear_2001_445" x1="0.671855" y1="0" x2="0.671855" y2="1" gradientUnits="userSpaceOnUse">
<stop stop-color="#DFC188"/>
<stop offset="1" stop-color="#7E6941"/>
</linearGradient>
<linearGradient id="paint18_linear_2001_445" x1="0.6684" y1="0" x2="0.6684" y2="1" gradientUnits="userSpaceOnUse">
<stop stop-color="#DFC188"/>
<stop offset="1" stop-color="#7E6941"/>
</linearGradient>
<linearGradient id="paint19_linear_2001_445" x1="0.6684" y1="0" x2="0.6684" y2="1" gradientUnits="userSpaceOnUse">
<stop stop-color="#DFC188"/>
<stop offset="1" stop-color="#7E6941"/>
</linearGradient>
<linearGradient id="paint20_linear_2001_445" x1="41.3186" y1="16.5" x2="41.3186" y2="15.5" gradientUnits="userSpaceOnUse">
<stop stop-color="#DFC188"/>
<stop offset="1" stop-color="#7E6941"/>
</linearGradient>
<linearGradient id="paint21_linear_2001_445" x1="21.4485" y1="16.5" x2="21.4485" y2="15.5" gradientUnits="userSpaceOnUse">
<stop stop-color="#DFC188"/>
<stop offset="1" stop-color="#7E6941"/>
</linearGradient>
<linearGradient id="paint22_linear_2001_445" x1="31.3828" y1="6.66667" x2="30.3828" y2="6.66667" gradientUnits="userSpaceOnUse">
<stop stop-color="#DFC188"/>
<stop offset="1" stop-color="#7E6941"/>
</linearGradient>
<linearGradient id="paint23_linear_2001_445" x1="31.3828" y1="26.3337" x2="30.3828" y2="26.3337" gradientUnits="userSpaceOnUse">
<stop stop-color="#DFC188"/>
<stop offset="1" stop-color="#7E6941"/>
</linearGradient>
</defs>
</svg>
